<svg width="18" height="19" viewBox="0 0 18 19" fill="none" xmlns="http://www.w3.org/2000/svg">
<path d="M5.93114 1.7533C5.92031 0.784637 7.15535 0.368027 7.73348 1.14533L10.4495 4.79703C10.708 5.14465 11.161 5.28626 11.5715 5.14778L15.8838 3.69314C16.8017 3.38351 17.5796 4.42935 17.019 5.21938L14.3853 8.93091C14.1346 9.28422 14.1399 9.75879 14.3984 10.1064L17.1144 13.7581C17.6926 14.5354 16.9383 15.5984 16.0137 15.3094L11.67 13.9515C11.2565 13.8222 10.8068 13.9739 10.556 14.3272L7.92236 18.0388C7.36176 18.8288 6.11772 18.4399 6.10689 17.4712L6.05601 12.9205C6.05116 12.4873 5.76793 12.1065 5.35443 11.9773L1.01071 10.6194C0.0861097 10.3304 0.071536 9.02703 0.989442 8.71739L5.30172 7.26275C5.71222 7.12428 5.98687 6.73723 5.98203 6.30403L5.93114 1.7533Z" fill="#FFCB2A"/>
</svg>
